<svg xmlns="http://www.w3.org/2000/svg" version="1.1" xmlns:xlink="http://www.w3.org/1999/xlink" xmlns:svgjs="http://svgjs.dev/svgjs" width="1500" height="1500" viewBox="0 0 1500 1500"><rect width="1500" height="1500" fill="#221d1d"></rect><g transform="matrix(0.6666666666666666,0,0,0.6666666666666666,249.90445344129557,249.90485829959528)"><svg viewBox="0 0 247 247" data-background-color="#221d1d" preserveAspectRatio="xMidYMid meet" height="1500" width="1500" xmlns="http://www.w3.org/2000/svg" xmlns:xlink="http://www.w3.org/1999/xlink"><g id="tight-bounds" transform="matrix(1,0,0,1,0.02359999999998763,0.02349999999998431)"><svg viewBox="0 0 246.95280000000002 246.95280000000002" height="246.95280000000002" width="246.95280000000002"><g><svg viewBox="0 0 246.95280000000002 246.95280000000002" height="246.95280000000002" width="246.95280000000002"><g><svg viewBox="0 0 246.95280000000002 246.95280000000002" height="246.95280000000002" width="246.95280000000002"><g><svg viewBox="0 0 246.95280000000002 246.95280000000002" height="246.95280000000002" width="246.95280000000002"><g id="textblocktransform"><svg viewBox="0 0 246.95280000000002 246.95280000000002" height="246.95280000000002" width="246.95280000000002" id="textblock"><g><svg viewBox="0 0 246.95280000000002 246.95280000000002" height="246.95280000000002" width="246.95280000000002"><g transform="matrix(1,0,0,1,55.08278352407295,55.08278352407295)"><svg viewBox="0 0 136.78723295185412 136.78723295185412" height="136.78723295185412" width="136.78723295185412"><g><circle r="68" cx="68.39361647592706" cy="68.39361647592706" fill="#221d1d" data-fill-palette-color="accent"></circle><svg xmlns="http://www.w3.org/2000/svg" xmlns:xlink="http://www.w3.org/1999/xlink" version="1.1" x="20.518084942778117" y="20.518084942778117" viewBox="0.7534958055897398 0.8368608799048752 46.64803392980818 46.263139120095126" enable-background="new 0 0 48 48" xml:space="preserve" height="95.75106306629789" width="95.75106306629789" class="icon-xg-0" data-fill-palette-color="quaternary" id="xg-0"><g fill="#7c8988" data-fill-palette-color="quaternary"><g fill="#7c8988" data-fill-palette-color="quaternary"><g fill="#7c8988" data-fill-palette-color="quaternary"><path fill="#7c8988" d="M0.9 2.4C1.3 11.2 1.3 20.1 1.3 29c0 2.1-0.8 11.5 2.9 11.7 8.7 0.6 17.6 0.1 26.3 0.1 2.4 0 14.7 1.5 15.6-1.8 2.1-7.3 1.1-16.1 0.8-23.6-0.2-4.2-0.4-8.5-0.6-12.7 0-0.9-0.4-1.1-1.2-1.3-3.4-1-8.2-0.1-11.7-0.2-4.5-0.1-9-0.1-13.5-0.2C15.4 1.1 10.9 1 6.4 1c-1.7 0-4.2-0.7-5.5 0.8C0.4 2.3 1.3 3.2 1.8 2.6c1.1-1.2 7-0.4 8.5-0.3 3.2 0 6.4 0.1 9.6 0.1 6.4 0.1 12.9 0.2 19.3 0.3 1.3 0 2.6 0 3.9 0.1 2.8 0 2.2 3.9 2.3 5.5 0.2 3.1 0.3 6.1 0.4 9.2 0.3 6.2 0.3 12.5-0.3 18.7-0.5 5.4-15.4 3.6-18.8 3.6-6.5 0-13 0-19.4 0-5.1 0-4.4-4.7-4.6-8.6-0.1-3.2 0-6.4 0-9.6 0-6.3-0.2-12.7-0.4-19C2.2 1.5 0.9 1.5 0.9 2.4L0.9 2.4z" data-fill-palette-color="quaternary"></path></g></g><g fill="#7c8988" data-fill-palette-color="quaternary"><g fill="#7c8988" data-fill-palette-color="quaternary"><path fill="#7c8988" d="M17.2 10.2c-1.6 1.4-3.8 2.1-5.5 3.3-1 0.7-2.9 2.1-3.3 3.4-0.2 0.9 0.9 1.4 1.5 1.8 2.4 1.5 4.5 3.3 6.4 5.3 0.6 0.6 1.4-0.3 0.9-0.9-1.2-1.2-2.4-2.4-3.7-3.5-0.5-0.4-3.8-2.4-3.3-3.1 2.2-2.6 5.5-3.4 8-5.6C18.7 10.5 17.8 9.6 17.2 10.2L17.2 10.2z" data-fill-palette-color="quaternary"></path></g></g><g fill="#7c8988" data-fill-palette-color="quaternary"><g fill="#7c8988" data-fill-palette-color="quaternary"><path fill="#7c8988" d="M27.2 6.7c-2.7 7.2-5.2 14.5-7.6 21.9-0.3 0.8 1 1.1 1.2 0.3 2.4-7.3 4.9-14.6 7.6-21.9C28.7 6.3 27.5 5.9 27.2 6.7L27.2 6.7z" data-fill-palette-color="quaternary"></path></g></g><g fill="#7c8988" data-fill-palette-color="quaternary"><g fill="#7c8988" data-fill-palette-color="quaternary"><path fill="#7c8988" d="M29.3 11.6c1.5 1.1 2.9 2.3 4.4 3.4 0.9 0.7 1.8 1.4 2.6 2.1 1.3 1 0.7 0.9-0.4 1.7-2.4 1.7-4.3 3.9-6 6.3-0.5 0.7 0.6 1.3 1.1 0.6 1.4-2 3.1-3.8 5-5.4 0.4-0.3 2.7-1.5 2.7-2.4 0-1.2-1.5-1.9-2.3-2.5-2.1-1.6-4.1-3.2-6.2-4.8C29.5 10.2 28.6 11.1 29.3 11.6L29.3 11.6z" data-fill-palette-color="quaternary"></path></g></g><g fill="#7c8988" data-fill-palette-color="quaternary"><g fill="#7c8988" data-fill-palette-color="quaternary"><path fill="#7c8988" d="M2.3 31.9c14.8 0.3 29.5 0.2 44.3-0.3 0.8 0 0.8-1.3 0-1.3-14.8 0.6-29.5 0.7-44.3 0.3C1.5 30.6 1.5 31.9 2.3 31.9L2.3 31.9z" data-fill-palette-color="quaternary"></path></g></g><g fill="#7c8988" data-fill-palette-color="quaternary"><g fill="#7c8988" data-fill-palette-color="quaternary"><path fill="#7c8988" d="M21.1 36.6c1.1 0 2.2 0 3.3 0 0.8 0 0.8-1.3 0-1.3-1.1 0-2.2 0-3.3 0C20.3 35.4 20.3 36.6 21.1 36.6L21.1 36.6z" data-fill-palette-color="quaternary"></path></g></g><g fill="#7c8988" data-fill-palette-color="quaternary"><g fill="#7c8988" data-fill-palette-color="quaternary"><path fill="#7c8988" d="M23.8 40.3c-0.3 1.8-0.4 3.6-0.2 5.5 0.1 0.8 1.3 0.8 1.3 0-0.2-1.7-0.2-3.4 0.1-5.1C25.2 39.8 24 39.5 23.8 40.3L23.8 40.3z" data-fill-palette-color="quaternary"></path></g></g><g fill="#7c8988" data-fill-palette-color="quaternary"><g fill="#7c8988" data-fill-palette-color="quaternary"><path fill="#7c8988" d="M15.1 47.1c6.9 0 13.8 0 20.6 0 0.8 0 0.8-1.3 0-1.3-6.9 0-13.8 0-20.6 0C14.3 45.8 14.3 47.1 15.1 47.1L15.1 47.1z" data-fill-palette-color="quaternary"></path></g></g></g></svg></g></svg></g><g><path d="M8.231 88.969v0c-2.084-0.701-3.412-1.735-3.983-3.101-0.574-1.36-0.462-3.224 0.334-5.591v0c0.558-1.66 1.438-2.849 2.64-3.569 1.202-0.72 2.759-1.009 4.673-0.866v0l1.249 3.76-0.533 1.583-1.439-4.373c-1.594-0.028-2.824 0.285-3.689 0.94-0.871 0.652-1.516 1.602-1.936 2.85v0c-0.288 0.856-0.476 1.598-0.566 2.226-0.09 0.629-0.08 1.291 0.03 1.986 0.116 0.698 0.467 1.314 1.054 1.848 0.587 0.534 1.417 0.981 2.491 1.342v0c0.946 0.318 1.932 0.163 2.96-0.465 1.019-0.624 1.999-1.472 2.939-2.544 0.934-1.075 1.879-2.15 2.835-3.225 0.964-1.079 2.011-1.912 3.139-2.499 1.137-0.591 2.252-0.703 3.346-0.335v0c2.155 0.725 3.58 1.799 4.276 3.221 0.691 1.414 0.603 3.411-0.264 5.99v0c-0.71 2.11-1.691 3.623-2.945 4.541-1.256 0.924-2.85 1.311-4.784 1.161v0l-0.081-1.036c1.882 0.153 3.339-0.176 4.371-0.989 1.026-0.815 1.85-2.149 2.474-4.001v0c0.695-2.065 0.811-3.73 0.348-4.996-0.454-1.27-1.694-2.245-3.72-2.926v0c-0.946-0.318-1.929-0.162-2.95 0.468-1.025 0.622-2.007 1.476-2.946 2.564-0.945 1.085-1.893 2.159-2.844 3.221-0.96 1.066-2.005 1.896-3.136 2.49-1.135 0.585-2.249 0.693-3.342 0.325z" fill="#dcfaf6" data-fill-palette-color="primary"></path><path d="M21.085 55.772l17.331 9.446-0.487 0.894-8.67-4.726-4.887 8.965 8.67 4.726-0.487 0.894-17.331-9.447 0.487-0.894 7.768 4.234 4.886-8.965-7.767-4.234z" fill="#dcfaf6" data-fill-palette-color="primary"></path><path d="M42.903 59.382l-15.9-11.696 0.604-0.82 15.899 11.696z" fill="#dcfaf6" data-fill-palette-color="primary"></path><path d="M47.095 40.28v0l10.326 3.596-0.782 0.802-10.637-3.715c0.014-0.043 0.081-0.253 0.201-0.629 0.125-0.371 0.208-0.631 0.249-0.78 0.036-0.154 0.093-0.416 0.17-0.787 0.077-0.371 0.099-0.68 0.067-0.93-0.022-0.249-0.06-0.532-0.111-0.848-0.052-0.326-0.164-0.634-0.336-0.924-0.177-0.295-0.403-0.578-0.68-0.848v0c-1.021-0.995-2.25-1.245-3.689-0.752-1.438 0.503-2.863 1.479-4.274 2.927v0l-1.897 1.947 13.406 13.066-0.711 0.729-14.135-13.777 2.608-2.675c1.871-1.92 3.618-3.046 5.24-3.379 1.627-0.338 3.017 0.055 4.169 1.178v0c0.748 0.729 1.165 1.629 1.251 2.698 0.081 1.064-0.064 2.098-0.435 3.101z" fill="#dcfaf6" data-fill-palette-color="primary"></path><path d="M63.029 40.101l-0.579-0.837 9.125-6.313-15.097-9.547 3.838 18.573-0.895 0.62-4.437-21.353 18.426 11.675z" fill="#dcfaf6" data-fill-palette-color="primary"></path><path d="M99.283 17.542l1.008 0.125c-0.104 1.616-0.555 2.987-1.352 4.112-0.798 1.125-2.249 2.039-4.354 2.742v0c-2.652 0.886-4.841 0.716-6.567-0.51-1.726-1.226-3.165-3.561-4.315-7.006v0l-1.058-3.166c-1.15-3.444-1.406-6.178-0.765-8.202 0.642-2.018 2.29-3.47 4.941-4.356v0c2.105-0.703 3.814-0.845 5.128-0.425 1.316 0.426 2.5 1.251 3.552 2.473v0l-0.727 0.715c-0.913-1.083-1.933-1.812-3.059-2.186-1.136-0.379-2.659-0.249-4.571 0.389v0c-1.056 0.353-1.915 0.79-2.578 1.312-0.663 0.522-1.189 1.206-1.579 2.051-0.388 0.852-0.528 1.933-0.42 3.242 0.104 1.318 0.455 2.871 1.053 4.661v0l1.058 3.167c0.596 1.783 1.248 3.232 1.957 4.347 0.703 1.118 1.464 1.897 2.284 2.339 0.822 0.448 1.654 0.678 2.495 0.691 0.843 0.019 1.793-0.148 2.849-0.501v0c1.912-0.639 3.208-1.448 3.89-2.427 0.673-0.983 1.05-2.179 1.13-3.587z" fill="#dcfaf6" data-fill-palette-color="primary"></path><path d="M114.514 1.391c-0.797-0.139-1.758-0.139-2.883 0.002-1.125 0.141-2.056 0.377-2.794 0.709-0.731 0.331-1.38 0.857-1.946 1.578-0.56 0.72-0.92 1.716-1.083 2.988-0.163 1.265-0.127 2.83 0.107 4.695 0.235 1.872 0.587 3.401 1.057 4.587 0.47 1.186 1.066 2.062 1.786 2.628 0.727 0.559 1.485 0.908 2.276 1.049 0.797 0.139 1.758 0.139 2.882-0.002 1.125-0.141 2.056-0.377 2.794-0.71 0.738-0.332 1.387-0.858 1.947-1.577 0.559-0.727 0.919-1.723 1.082-2.988 0.163-1.265 0.127-2.834-0.108-4.706-0.234-1.865-0.586-3.391-1.056-4.577-0.471-1.193-1.066-2.069-1.786-2.628-0.72-0.56-1.478-0.909-2.275-1.048zM119.793 17.482c-1.019 1.749-2.935 2.799-5.75 3.153-2.815 0.353-4.928-0.193-6.34-1.637-1.419-1.443-2.352-3.946-2.798-7.508-0.446-3.555-0.159-6.207 0.859-7.956 1.011-1.755 2.924-2.808 5.739-3.161 2.815-0.353 4.932 0.196 6.352 1.645 1.412 1.444 2.341 3.944 2.786 7.499 0.447 3.562 0.164 6.217-0.848 7.965z" fill="#dcfaf6" data-fill-palette-color="primary"></path><path d="M141.287 0.746l-1.202 19.701-1.016-0.062 0.601-9.856-10.191-0.621-0.602 9.856-1.016-0.062 1.202-19.702 1.016 0.062-0.538 8.83 10.191 0.621 0.539-8.829z" fill="#dcfaf6" data-fill-palette-color="primary"></path><path d="M159.373 22.65l0.556 0.851c-1.604 1.193-3.778 1.43-6.522 0.71-2.744-0.72-4.503-2.012-5.276-3.878-0.78-1.867-0.715-4.537 0.195-8.01 0.909-3.466 2.161-5.821 3.758-7.065 1.591-1.252 3.759-1.519 6.503-0.799v0c3.184 0.835 5.073 2.446 5.668 4.832v0l-9.833 4.631-1.556-0.408 10.15-4.758c-0.626-1.546-2.189-2.647-4.69-3.303v0c-1.096-0.287-2.049-0.414-2.857-0.381-0.802 0.035-1.6 0.282-2.394 0.741-0.787 0.46-1.493 1.25-2.116 2.37-0.622 1.114-1.171 2.58-1.648 4.399-0.479 1.825-0.72 3.375-0.725 4.65-0.005 1.276 0.222 2.31 0.681 3.104 0.467 0.789 1.041 1.395 1.722 1.82 0.688 0.426 1.58 0.783 2.676 1.07v0c2.501 0.656 4.404 0.464 5.708-0.576z" fill="#dcfaf6" data-fill-palette-color="primary"></path><path d="M165.718 28.302l-0.923-0.428 8.307-17.906 0.923 0.429 2.547 20.876 7.518-16.207 0.924 0.429-8.307 17.905-0.923-0.428-2.53-20.913z" fill="#dcfaf6" data-fill-palette-color="primary"></path><path d="M207.54 26.532l-15.013 18.506-0.79-0.641 15.013-18.507z" fill="#dcfaf6" data-fill-palette-color="primary"></path><path d="M199.514 52.158v0l-1.754-1.9 14.506-13.387 1.753 1.9c2.278 2.469 3.446 5.034 3.502 7.698 0.052 2.667-1.04 5.032-3.274 7.094-2.234 2.062-4.679 2.96-7.333 2.695-2.655-0.265-5.121-1.632-7.4-4.1zM199.199 50.316l1.063 1.152c2.076 2.249 4.302 3.506 6.678 3.768 2.376 0.263 4.582-0.544 6.617-2.421 2.035-1.878 3.014-4.009 2.936-6.395-0.072-2.39-1.146-4.709-3.222-6.958v0l-1.063-1.152z" fill="#dcfaf6" data-fill-palette-color="primary"></path><path d="M230.954 63.692c-0.202-0.784-0.598-1.659-1.191-2.625-0.592-0.966-1.191-1.717-1.798-2.253-0.603-0.53-1.35-0.904-2.239-1.123-0.887-0.213-1.943-0.131-3.169 0.245-1.22 0.373-2.631 1.051-4.234 2.033-1.609 0.985-2.857 1.937-3.743 2.854-0.887 0.917-1.439 1.821-1.658 2.71-0.209 0.892-0.215 1.727-0.017 2.506 0.202 0.784 0.598 1.659 1.19 2.625 0.592 0.966 1.191 1.717 1.798 2.253 0.607 0.536 1.353 0.91 2.24 1.123 0.892 0.209 1.948 0.128 3.168-0.245 1.22-0.373 2.634-1.052 4.243-2.038 1.603-0.982 2.848-1.931 3.734-2.849 0.892-0.921 1.445-1.824 1.658-2.71 0.213-0.887 0.219-1.722 0.018-2.506zM218.469 75.136c-2.013-0.207-3.761-1.521-5.242-3.94-1.482-2.419-1.856-4.569-1.123-6.451 0.73-1.888 2.626-3.769 5.687-5.644 3.056-1.872 5.59-2.704 7.603-2.497 2.015 0.198 3.764 1.507 5.246 3.926 1.482 2.419 1.855 4.574 1.119 6.465-0.733 1.882-2.628 3.758-5.683 5.63-3.061 1.875-5.597 2.712-7.607 2.511z" fill="#dcfaf6" data-fill-palette-color="primary"></path><path d="M242.699 89.125l0.366 1.026-21.767-1.267 16.045-14.763 0.367 1.026-13.948 12.857z" fill="#dcfaf6" data-fill-palette-color="primary"></path><path d="M23.521 152.837v0c2.084-0.701 3.767-0.68 5.048 0.064 1.279 0.737 2.317 2.289 3.113 4.656v0c0.558 1.66 0.576 3.139 0.054 4.439-0.522 1.3-1.589 2.471-3.2 3.514v0l-3.267-2.241-0.532-1.582 3.789 2.613c1.287-0.941 2.077-1.934 2.371-2.978 0.3-1.046 0.24-2.193-0.18-3.441v0c-0.288-0.856-0.586-1.561-0.894-2.115-0.308-0.555-0.717-1.076-1.225-1.565-0.514-0.486-1.166-0.764-1.956-0.835-0.79-0.071-1.722 0.074-2.796 0.436v0c-0.946 0.318-1.638 1.038-2.077 2.16-0.435 1.113-0.703 2.381-0.804 3.803-0.095 1.421-0.198 2.848-0.31 4.283-0.116 1.442-0.446 2.739-0.991 3.888-0.548 1.158-1.369 1.921-2.463 2.289v0c-2.155 0.725-3.939 0.731-5.353 0.018-1.405-0.709-2.542-2.353-3.409-4.932v0c-0.71-2.11-0.842-3.909-0.398-5.398 0.442-1.495 1.479-2.767 3.109-3.816v0l0.691 0.777c-1.592 1.015-2.553 2.158-2.885 3.43-0.325 1.269-0.176 2.83 0.447 4.682v0c0.695 2.065 1.608 3.461 2.742 4.19 1.129 0.737 2.706 0.765 4.732 0.084v0c0.946-0.318 1.635-1.037 2.067-2.156 0.441-1.115 0.707-2.389 0.798-3.823 0.097-1.436 0.204-2.864 0.319-4.286 0.121-1.43 0.452-2.722 0.994-3.878 0.551-1.152 1.373-1.912 2.466-2.28z" fill="#dcfaf6" data-fill-palette-color="primary"></path><path d="M38.413 181.733l-17.33 9.447-0.488-0.894 8.67-4.726-4.886-8.965-8.67 4.726-0.487-0.894 17.33-9.447 0.488 0.894-7.768 4.234 4.887 8.965 7.767-4.234z" fill="#dcfaf6" data-fill-palette-color="primary"></path><path d="M27.001 199.266l15.899-11.697 0.604 0.82-15.9 11.697z" fill="#dcfaf6" data-fill-palette-color="primary"></path><path d="M47.144 206.622v0l-3.86 10.231-0.782-0.802 3.986-10.538c0.043 0.015 0.251 0.087 0.624 0.216 0.368 0.134 0.626 0.224 0.774 0.269 0.153 0.04 0.414 0.104 0.782 0.19 0.368 0.086 0.678 0.117 0.928 0.091 0.25-0.016 0.533-0.046 0.85-0.089 0.327-0.044 0.638-0.148 0.933-0.312 0.3-0.169 0.588-0.388 0.865-0.659v0c1.021-0.995 1.303-2.217 0.846-3.668-0.466-1.45-1.405-2.9-2.817-4.348v0l-1.897-1.946-13.405 13.067-0.711-0.729 14.135-13.778 2.607 2.676c1.871 1.92 2.952 3.695 3.244 5.325 0.296 1.635-0.132 3.015-1.284 4.137v0c-0.748 0.729-1.658 1.123-2.729 1.182-1.066 0.054-2.096-0.118-3.089-0.515z" fill="#dcfaf6" data-fill-palette-color="primary"></path><path d="M51.797 223.084l0.579-0.837 9.125 6.312 3.611-17.493-16.027 10.141-0.896-0.619 18.417-11.681-4.428 21.358z" fill="#dcfaf6" data-fill-palette-color="primary"></path><path d="M96.067 239.036l0.73 0.706c-1.055 1.229-2.239 2.053-3.552 2.473-1.314 0.42-3.023 0.278-5.128-0.425v0c-2.652-0.886-4.299-2.338-4.942-4.356-0.642-2.018-0.388-4.748 0.762-8.192v0l1.058-3.167c1.15-3.444 2.59-5.782 4.318-7.014 1.726-1.226 3.915-1.397 6.568-0.511v0c2.105 0.703 3.556 1.617 4.353 2.742 0.795 1.132 1.246 2.502 1.353 4.112v0l-1.011 0.135c-0.078-1.414-0.455-2.61-1.131-3.587-0.68-0.985-1.975-1.798-3.887-2.436v0c-1.056-0.353-2.005-0.52-2.848-0.501-0.843 0.019-1.675 0.249-2.496 0.69-0.822 0.448-1.584 1.228-2.283 2.339-0.709 1.115-1.362 2.568-1.961 4.357v0l-1.058 3.167c-0.596 1.783-0.945 3.333-1.049 4.651-0.11 1.315 0.03 2.396 0.42 3.242 0.388 0.852 0.914 1.536 1.579 2.051 0.663 0.522 1.522 0.959 2.577 1.312v0c1.912 0.639 3.434 0.772 4.568 0.399 1.129-0.381 2.149-1.11 3.06-2.187z" fill="#dcfaf6" data-fill-palette-color="primary"></path><path d="M116.71 228.038c-0.738-0.332-1.669-0.568-2.794-0.71-1.125-0.141-2.085-0.142-2.883-0.002-0.79 0.14-1.549 0.49-2.275 1.048-0.72 0.56-1.315 1.436-1.786 2.629-0.47 1.186-0.822 2.711-1.056 4.576-0.235 1.872-0.271 3.441-0.108 4.706 0.163 1.265 0.524 2.261 1.082 2.988 0.566 0.721 1.215 1.247 1.947 1.577 0.738 0.332 1.669 0.568 2.794 0.71 1.125 0.141 2.085 0.142 2.882 0.002 0.797-0.139 1.556-0.489 2.276-1.048 0.721-0.566 1.316-1.442 1.786-2.629 0.47-1.186 0.823-2.715 1.057-4.586 0.234-1.865 0.269-3.43 0.107-4.696-0.162-1.272-0.523-2.268-1.083-2.988-0.56-0.72-1.208-1.246-1.946-1.577zM117.854 244.934c-1.419 1.443-3.536 1.988-6.35 1.636-2.815-0.353-4.728-1.403-5.74-3.151-1.019-1.749-1.305-4.404-0.858-7.966 0.446-3.555 1.378-6.055 2.796-7.498 1.413-1.451 3.527-2 6.342-1.647 2.815 0.353 4.731 1.407 5.749 3.162 1.012 1.748 1.295 4.399 0.849 7.955-0.447 3.562-1.376 6.065-2.788 7.509z" fill="#dcfaf6" data-fill-palette-color="primary"></path><path d="M140.085 226.505l1.202 19.702-1.016 0.062-0.602-9.856-10.191 0.622 0.602 9.856-1.017 0.062-1.201-19.702 1.016-0.062 0.538 8.83 10.191-0.622-0.538-8.83z" fill="#dcfaf6" data-fill-palette-color="primary"></path><path d="M163.017 238.196l0.902 0.469c-0.812 1.827-2.59 3.1-5.334 3.819-2.744 0.72-4.911 0.456-6.5-0.789-1.596-1.244-2.85-3.603-3.76-7.076-0.909-3.466-0.973-6.133-0.193-8 0.772-1.872 2.53-3.168 5.273-3.887v0c3.184-0.835 5.62-0.358 7.31 1.429v0l-6.295 8.86-1.556 0.408 6.51-9.126c-1.304-1.04-3.207-1.232-5.708-0.577v0c-1.096 0.287-1.988 0.644-2.676 1.07-0.682 0.424-1.256 1.031-1.723 1.82-0.46 0.787-0.687 1.822-0.68 3.104 0.005 1.276 0.246 2.823 0.722 4.641 0.479 1.825 1.029 3.294 1.651 4.408 0.622 1.114 1.327 1.904 2.116 2.371 0.794 0.458 1.592 0.705 2.394 0.74 0.809 0.034 1.761-0.093 2.857-0.38v0c2.501-0.656 4.065-1.757 4.69-3.304z" fill="#dcfaf6" data-fill-palette-color="primary"></path><path d="M174.026 236.556l-0.923 0.428-8.307-17.905 0.924-0.429 17.583 11.537-7.518-16.206 0.923-0.429 8.307 17.906-0.923 0.428-17.601-11.573z" fill="#dcfaf6" data-fill-palette-color="primary"></path><path d="M189.951 198.736l15.013 18.506-0.79 0.642-15.013-18.507z" fill="#dcfaf6" data-fill-palette-color="primary"></path><path d="M214.021 208.18v0l-1.753 1.9-14.505-13.386 1.753-1.9c2.278-2.469 4.742-3.838 7.392-4.108 2.655-0.265 5.099 0.634 7.334 2.696 2.234 2.062 3.326 4.427 3.274 7.094-0.052 2.667-1.216 5.236-3.495 7.704zM212.21 208.642l1.063-1.152c2.076-2.249 3.15-4.569 3.222-6.958 0.072-2.39-0.909-4.524-2.943-6.402-2.035-1.878-4.238-2.683-6.61-2.415-2.376 0.263-4.602 1.52-6.678 3.769v0l-1.063 1.152z" fill="#dcfaf6" data-fill-palette-color="primary"></path><path d="M215.895 174.034c-0.607 0.536-1.206 1.287-1.798 2.253-0.592 0.966-0.989 1.842-1.19 2.625-0.198 0.778-0.192 1.613 0.017 2.506 0.213 0.887 0.766 1.79 1.659 2.711 0.887 0.917 2.131 1.867 3.734 2.848 1.609 0.985 3.023 1.665 4.243 2.038 1.22 0.373 2.276 0.455 3.168 0.246 0.89-0.219 1.637-0.593 2.24-1.123 0.607-0.536 1.206-1.287 1.798-2.254 0.592-0.966 0.989-1.842 1.19-2.625 0.202-0.784 0.196-1.619-0.017-2.505-0.219-0.89-0.772-1.794-1.658-2.711-0.887-0.917-2.134-1.868-3.743-2.854-1.603-0.982-3.014-1.659-4.235-2.033-1.226-0.377-2.282-0.459-3.168-0.245-0.887 0.213-1.633 0.587-2.24 1.123zM231.762 179.956c0.73 1.888 0.354 4.041-1.128 6.46-1.482 2.419-3.227 3.729-5.237 3.931-2.013 0.207-4.55-0.627-7.612-2.502-3.056-1.872-4.948-3.751-5.678-5.639-0.739-1.885-0.368-4.037 1.114-6.456 1.482-2.419 3.232-3.73 5.251-3.934 2.01-0.202 4.542 0.633 7.597 2.505 3.061 1.875 4.959 3.754 5.693 5.635z" fill="#dcfaf6" data-fill-palette-color="primary"></path><path d="M224.112 151.191l0.366-1.026 16.045 14.763-21.766 1.267 0.366-1.026 18.936-1.12z" fill="#dcfaf6" data-fill-palette-color="primary"></path><path d="M8.559 123.475c0-1.529 1.24-2.769 2.769-2.769 1.529 0 2.769 1.24 2.77 2.769 0 1.529-1.24 2.769-2.77 2.769-1.529 0-2.769-1.24-2.769-2.769z" fill="#dcfaf6" data-fill-palette-color="primary"></path><path d="M234.813 123.475c0-1.529 1.24-2.769 2.77-2.769 1.529 0 2.769 1.24 2.769 2.769 0 1.529-1.24 2.769-2.769 2.769-1.529 0-2.769-1.24-2.77-2.769z" fill="#dcfaf6" data-fill-palette-color="primary"></path></g></svg></g></svg></g></svg></g></svg></g></svg></g><defs></defs></svg><rect width="246.95280000000002" height="246.95280000000002" fill="none" stroke="none" visibility="hidden"></rect></g></svg></g></svg>