{
  "accessors": [
    {
      "bufferView": 2,
      "componentType": 5126,
      "count": 13227,
      "max": [
        6.563962459564209,
        6.705130100250244,
        6.947566509246826
      ],
      "min": [
        -6.825206756591797,
        -7.300500869750977,
        -6.632358074188232
      ],
      "type": "VEC3"
    },
    {
      "bufferView": 2,
      "byteOffset": 158724,
      "componentType": 5126,
      "count": 13227,
      "max": [
        0.999248743057251,
        0.9991864562034607,
        0.9992467761039734
      ],
      "min": [
        -0.9998387098312378,
        -0.9998468160629272,
        -0.9992486834526062
      ],
      "type": "VEC3"
    },
    {
      "bufferView": 1,
      "componentType": 5126,
      "count": 13227,
      "max": [
        0.9126057028770447,
        0.9980079531669617
      ],
      "min": [
        0.0018216681201010942,
        0.08046448230743408
      ],
      "type": "VEC2"
    },
    {
      "bufferView": 0,
      "componentType": 5125,
      "count": 20808,
      "type": "SCALAR"
    },
    {
      "bufferView": 2,
      "byteOffset": 317448,
      "componentType": 5126,
      "count": 32499,
      "max": [
        8.676560401916504,
        8.681580543518066,
        8.890999794006348
      ],
      "min": [
        -8.83541488647461,
        -9.444445610046387,
        -8.587642669677734
      ],
      "type": "VEC3"
    },
    {
      "bufferView": 2,
      "byteOffset": 707436,
      "componentType": 5126,
      "count": 32499,
      "max": [
        1.0,
        1.0,
        1.0
      ],
      "min": [
        -1.0,
        -1.0,
        -1.0
      ],
      "type": "VEC3"
    },
    {
      "bufferView": 0,
      "byteOffset": 83232,
      "componentType": 5125,
      "count": 781920,
      "type": "SCALAR"
    },
    {
      "bufferView": 2,
      "byteOffset": 1097424,
      "componentType": 5126,
      "count": 3672,
      "max": [
        8.583353042602539,
        8.588372230529785,
        8.79779052734375
      ],
      "min": [
        -8.742206573486328,
        -9.351238250732422,
        -8.453768730163574
      ],
      "type": "VEC3"
    },
    {
      "bufferView": 2,
      "byteOffset": 1141488,
      "componentType": 5126,
      "count": 3672,
      "max": [
        0.9977120757102966,
        0.9973615407943726,
        0.9938429594039917
      ],
      "min": [
        -0.9944906234741211,
        -0.9895349740982056,
        -0.9970723986625671
      ],
      "type": "VEC3"
    },
    {
      "bufferView": 1,
      "byteOffset": 105816,
      "componentType": 5126,
      "count": 3672,
      "max": [
        0.9126057028770447,
        0.9828668236732483
      ],
      "min": [
        0.0018215683521702886,
        0.0019919872283935547
      ],
      "type": "VEC2"
    },
    {
      "bufferView": 0,
      "byteOffset": 3210912,
      "componentType": 5125,
      "count": 4488,
      "type": "SCALAR"
    },
    {
      "bufferView": 2,
      "byteOffset": 1185552,
      "componentType": 5126,
      "count": 285,
      "max": [
        0.9231224656105042,
        0.9303051233291626,
        0.9248635768890381
      ],
      "min": [
        -0.9231224656105042,
        -0.9303051233291626,
        -0.9248635768890381
      ],
      "type": "VEC3"
    },
    {
      "bufferView": 2,
      "byteOffset": 1188972,
      "componentType": 5126,
      "count": 285,
      "max": [
        0.999589204788208,
        1.0,
        1.0
      ],
      "min": [
        -0.9995893239974976,
        -1.0,
        -1.0
      ],
      "type": "VEC3"
    },
    {
      "bufferView": 1,
      "byteOffset": 135192,
      "componentType": 5126,
      "count": 285,
      "max": [
        1.0,
        0.4723820686340332
      ],
      "min": [
        0.0,
        0.0
      ],
      "type": "VEC2"
    },
    {
      "bufferView": 0,
      "byteOffset": 3228864,
      "componentType": 5125,
      "count": 1440,
      "type": "SCALAR"
    },
    {
      "bufferView": 3,
      "componentType": 5126,
      "count": 140,
      "max": [
        5.833333492279053
      ],
      "min": [
        0.0416666679084301
      ],
      "type": "SCALAR"
    },
    {
      "bufferView": 5,
      "componentType": 5126,
      "count": 140,
      "max": [
        0.0,
        0.9999361634254456,
        -0.0,
        1.0
      ],
      "min": [
        0.0,
        -0.9999361634254456,
        -0.0,
        0.011300398968160152
      ],
      "type": "VEC4"
    },
    {
      "bufferView": 3,
      "byteOffset": 560,
      "componentType": 5126,
      "count": 96,
      "max": [
        5.833333492279053
      ],
      "min": [
        0.0416666679084301
      ],
      "type": "SCALAR"
    },
    {
      "bufferView": 4,
      "componentType": 5126,
      "count": 96,
      "max": [
        1.1094645261764526,
        1.109464406967163,
        1.1094646453857422
      ],
      "min": [
        1.109464168548584,
        1.109464406967163,
        1.109464168548584
      ],
      "type": "VEC3"
    },
    {
      "bufferView": 3,
      "byteOffset": 944,
      "componentType": 5126,
      "count": 140,
      "max": [
        5.833333492279053
      ],
      "min": [
        0.0416666679084301
      ],
      "type": "SCALAR"
    },
    {
      "bufferView": 5,
      "byteOffset": 2240,
      "componentType": 5126,
      "count": 140,
      "max": [
        0.0,
        0.9999361634254456,
        -0.0,
        1.0
      ],
      "min": [
        0.0,
        -0.9999361634254456,
        -0.0,
        0.011300398968160152
      ],
      "type": "VEC4"
    }
  ],
  "animations": [
    {
      "channels": [
        {
          "sampler": 0,
          "target": {
            "node": 3,
            "path": "rotation"
          }
        },
        {
          "sampler": 1,
          "target": {
            "node": 3,
            "path": "scale"
          }
        }
      ],
      "name": "Action",
      "samplers": [
        {
          "input": 15,
          "interpolation": "LINEAR",
          "output": 16
        },
        {
          "input": 17,
          "interpolation": "LINEAR",
          "output": 18
        }
      ]
    },
    {
      "channels": [
        {
          "sampler": 0,
          "target": {
            "node": 3,
            "path": "rotation"
          }
        }
      ],
      "name": "earth4_blinn1_0Action.001",
      "samplers": [
        {
          "input": 19,
          "interpolation": "LINEAR",
          "output": 20
        }
      ]
    }
  ],
  "asset": {
    "extras": {
      "author": "tkkjee 🪲 (https://sketchfab.com/tkkjee)",
      "license": "CC-BY-4.0 (http://creativecommons.org/licenses/by/4.0/)",
      "source": "https://sketchfab.com/3d-models/earth-hologram-style-3d-hud-fe6d480dbfac46eeaed7fa2ce0bd1e65",
      "title": "Earth Hologram style 3D HUD"
    },
    "generator": "Sketchfab-15.44.0",
    "version": "2.0"
  },
  "bufferViews": [
    {
      "buffer": 0,
      "byteLength": 3234624,
      "name": "floatBufferViews",
      "target": 34963
    },
    {
      "buffer": 0,
      "byteLength": 137472,
      "byteOffset": 3234624,
      "byteStride": 8,
      "name": "floatBufferViews",
      "target": 34962
    },
    {
      "buffer": 0,
      "byteLength": 1192392,
      "byteOffset": 3372096,
      "byteStride": 12,
      "name": "floatBufferViews",
      "target": 34962
    },
    {
      "buffer": 0,
      "byteLength": 1504,
      "byteOffset": 4564488,
      "name": "floatBufferViews"
    },
    {
      "buffer": 0,
      "byteLength": 1152,
      "byteOffset": 4565992,
      "byteStride": 12,
      "name": "floatBufferViews"
    },
    {
      "buffer": 0,
      "byteLength": 4480,
      "byteOffset": 4567144,
      "byteStride": 16,
      "name": "floatBufferViews"
    }
  ],
  "buffers": [
    {
      "byteLength": 4571624,
      "uri": "scene.bin"
    }
  ],
  "extensionsUsed": [
    "KHR_materials_transmission",
    "KHR_materials_specular"
  ],
  "materials": [
    {
      "alphaMode": "BLEND",
      "emissiveFactor": [
        0.6042642820938636,
        0.6042642820938636,
        0.6042642820938636
      ],
      "extensions": {
        "KHR_materials_specular": {
          "specularColorFactor": [
            1.0,
            1.0,
            1.0
          ],
          "specularFactor": 1.0
        },
        "KHR_materials_transmission": {
          "transmissionFactor": 1.0
        }
      },
      "name": "blinn1",
      "pbrMetallicRoughness": {
        "baseColorFactor": [
          1.0,
          1.0,
          1.0,
          0.25
        ],
        "metallicFactor": 0.0,
        "roughnessFactor": 0.3944419629682575
      }
    },
    {
      "alphaMode": "BLEND",
      "name": "blinn1.001",
      "pbrMetallicRoughness": {
        "baseColorFactor": [
          1.0,
          1.0,
          1.0,
          0.07342720826843567
        ],
        "metallicFactor": 0.0,
        "roughnessFactor": 0.34688037485610473
      }
    },
    {
      "alphaMode": "BLEND",
      "extensions": {
        "KHR_materials_specular": {
          "specularColorFactor": [
            1.0,
            1.0,
            1.0
          ],
          "specularFactor": 0.6385637525496184
        }
      },
      "name": "Material.001",
      "pbrMetallicRoughness": {
        "baseColorFactor": [
          0.0,
          0.0,
          0.0,
          0.6920194393897973
        ],
        "metallicFactor": 0.0,
        "roughnessFactor": 0.5
      }
    }
  ],
  "meshes": [
    {
      "name": "Object_0",
      "primitives": [
        {
          "attributes": {
            "NORMAL": 1,
            "POSITION": 0,
            "TEXCOORD_0": 2
          },
          "indices": 3,
          "material": 0,
          "mode": 4
        }
      ]
    },
    {
      "name": "Object_1",
      "primitives": [
        {
          "attributes": {
            "NORMAL": 5,
            "POSITION": 4
          },
          "indices": 6,
          "material": 0,
          "mode": 4
        }
      ]
    },
    {
      "name": "Object_2",
      "primitives": [
        {
          "attributes": {
            "NORMAL": 8,
            "POSITION": 7,
            "TEXCOORD_0": 9
          },
          "indices": 10,
          "material": 1,
          "mode": 4
        }
      ]
    },
    {
      "name": "Object_3",
      "primitives": [
        {
          "attributes": {
            "NORMAL": 12,
            "POSITION": 11,
            "TEXCOORD_0": 13
          },
          "indices": 14,
          "material": 2,
          "mode": 4
        }
      ]
    }
  ],
  "nodes": [
    {
      "children": [
        1
      ],
      "matrix": [
        1.0,
        0.0,
        0.0,
        0.0,
        0.0,
        2.220446049250313e-16,
        -1.0,
        0.0,
        0.0,
        1.0,
        2.220446049250313e-16,
        0.0,
        0.0,
        0.0,
        0.0,
        1.0
      ],
      "name": "Sketchfab_model"
    },
    {
      "children": [
        2
      ],
      "name": "root"
    },
    {
      "children": [
        3
      ],
      "matrix": [
        1.0,
        0.0,
        0.0,
        0.0,
        0.0,
        2.220446049250313e-16,
        1.0,
        0.0,
        0.0,
        -1.0,
        2.220446049250313e-16,
        0.0,
        0.0,
        0.0,
        0.0,
        1.0
      ],
      "name": "GLTF_SceneRootNode"
    },
    {
      "children": [
        4,
        5,
        7,
        9
      ],
      "name": "earth4_blinn1_0_11",
      "scale": [
        1.109464168548584,
        1.109464406967163,
        1.1094645261764526
      ]
    },
    {
      "mesh": 0,
      "name": "Object_4"
    },
    {
      "children": [
        6
      ],
      "matrix": [
        0.7799587249755859,
        0.0,
        0.0,
        0.0,
        0.0,
        0.7799587845802307,
        0.0,
        0.0,
        0.0,
        0.0,
        0.7799587249755859,
        0.0,
        0.0,
        0.0,
        0.0,
        1.0
      ],
      "name": "earth4_blinn1_0.001_8"
    },
    {
      "mesh": 1,
      "name": "Object_6"
    },
    {
      "children": [
        8
      ],
      "matrix": [
        0.7799587249755859,
        0.0,
        0.0,
        0.0,
        0.0,
        0.7799587845802307,
        0.0,
        0.0,
        0.0,
        0.0,
        0.7799587249755859,
        0.0,
        0.0,
        0.0,
        0.0,
        1.0
      ],
      "name": "earth4_lambert1_0_9"
    },
    {
      "mesh": 2,
      "name": "Object_8"
    },
    {
      "children": [
        10
      ],
      "matrix": [
        6.962993621826172,
        0.0,
        0.0,
        0.0,
        0.0,
        6.9629926681518555,
        0.0,
        0.0,
        0.0,
        0.0,
        6.962992191314697,
        0.0,
        0.0,
        0.0,
        0.0,
        1.0
      ],
      "name": "Icosphere.001_10"
    },
    {
      "mesh": 3,
      "name": "Object_10"
    }
  ],
  "scene": 0,
  "scenes": [
    {
      "name": "Sketchfab_Scene",
      "nodes": [
        0
      ]
    }
  ]
}
